<?xml version="1.0" encoding="UTF-8"?>
<svg width="375px" height="237px" viewBox="0 0 375 237" version="1.1" xmlns="http://www.w3.org/2000/svg" xmlns:xlink="http://www.w3.org/1999/xlink">
    <!-- Generator: Sketch 47.1 (45422) - http://www.bohemiancoding.com/sketch -->
    <title>邀请页面</title>
    <desc>Created with Sketch.</desc>
    <defs>
        <linearGradient x1="77.5174782%" y1="53.4968734%" x2="21.4574747%" y2="53.4968734%" id="linearGradient-1">
            <stop stop-color="#462AE4" offset="0%"></stop>
            <stop stop-color="#3EFFD5" offset="100%"></stop>
        </linearGradient>
        <text id="text-2" font-family="FZZDHJW--GB1-0, FZZhengHeiS-EB-GB" font-size="38" font-weight="normal" line-spacing="38" fill="#FFFFFF">
            <tspan x="55" y="154">邀请您一起体验</tspan>
        </text>
        <filter x="-2.6%" y="-13.2%" width="105.3%" height="136.8%" filterUnits="objectBoundingBox" id="filter-3">
            <feOffset dx="0" dy="2" in="SourceAlpha" result="shadowOffsetOuter1"></feOffset>
            <feGaussianBlur stdDeviation="2" in="shadowOffsetOuter1" result="shadowBlurOuter1"></feGaussianBlur>
            <feColorMatrix values="0 0 0 0 0   0 0 0 0 0   0 0 0 0 0  0 0 0 0.3 0" type="matrix" in="shadowBlurOuter1"></feColorMatrix>
        </filter>
    </defs>
    <g id="Page-1" stroke="none" stroke-width="1" fill="none" fill-rule="evenodd">
        <g id="邀请页面" transform="translate(0.000000, -64.000000)">
            <rect id="Rectangle-4" fill="#426EC5" x="0" y="64" width="375" height="623"></rect>
            <polygon id="Triangle" stroke="url(#linearGradient-1)" stroke-width="6" transform="translate(187.500000, 177.000000) scale(1, -1) translate(-187.500000, -177.000000) " points="187.5 108 289 246 86 246"></polygon>
            <polygon id="Triangle" stroke="url(#linearGradient-1)" stroke-width="6" transform="translate(187.500000, 182.000000) scale(1, -1) translate(-187.500000, -182.000000) " points="187.5 94 317 270 58 270"></polygon>
            <g id="邀请您一起体验" fill-opacity="1" fill="#FFFFFF">
                <use filter="url(#filter-3)" xlink:href="#text-2"></use>
                <use xlink:href="#text-2"></use>
            </g>
            <g id="Group-Copy" opacity="0.1" transform="translate(168.489890, 140.590659) rotate(-2.000000) translate(-168.489890, -140.590659) translate(93.489890, 96.590659)" fill="#FFFFFF">
                <rect id="Rectangle-5" transform="translate(68.812111, 32.426174) rotate(-25.000000) translate(-68.812111, -32.426174) " x="-6.37149173" y="31.8353593" width="150.367205" height="1.1816297"></rect>
                <rect id="Rectangle-5-Copy-2" transform="translate(75.183602, 45.424101) rotate(-25.000000) translate(-75.183602, -45.424101) " x="0" y="44.833286" width="150.367205" height="1.1816297"></rect>
                <rect id="Rectangle-5-Copy" transform="translate(71.360707, 35.971063) rotate(-25.000000) translate(-71.360707, -35.971063) " x="-3.82289504" y="35.3802484" width="150.367205" height="1.1816297"></rect>
                <rect id="Rectangle-5-Copy-3" transform="translate(77.732199, 48.968990) rotate(-25.000000) translate(-77.732199, -48.968990) " x="2.54859669" y="48.3781751" width="150.367205" height="1.1816297"></rect>
                <rect id="Rectangle-5-Copy" transform="translate(71.360707, 39.515952) rotate(-25.000000) translate(-71.360707, -39.515952) " x="-3.82289504" y="38.9251375" width="150.367205" height="1.1816297"></rect>
                <rect id="Rectangle-5-Copy-4" transform="translate(77.732199, 52.513879) rotate(-25.000000) translate(-77.732199, -52.513879) " x="2.54859669" y="51.9230642" width="150.367205" height="1.1816297"></rect>
                <rect id="Rectangle-5-Copy" transform="translate(75.183602, 41.879212) rotate(-25.000000) translate(-75.183602, -41.879212) " x="0" y="41.2883969" width="150.367205" height="1.1816297"></rect>
                <rect id="Rectangle-5-Copy-5" transform="translate(81.555094, 54.877138) rotate(-25.000000) translate(-81.555094, -54.877138) " x="6.37149173" y="54.2863236" width="150.367205" height="1.1816297"></rect>
            </g>
            <rect id="Rectangle-10" fill="#6A93E0" x="15" y="229" width="345" height="52" rx="26"></rect>
            <text id="医加多线上MDT会诊和随访管理平台——邀" font-family="PingFangSC-Regular, PingFang SC" font-size="12" font-weight="normal" line-spacing="12" fill="#FFFFFF">
                <tspan x="36" y="252">医加多线上MDT会诊和随访管理平台——邀名医入百姓家</tspan>
            </text>
            <text id="我在这个平台开展线上MDT会诊和随访管理" font-family="PingFangSC-Regular, PingFang SC" font-size="12" font-weight="normal" line-spacing="12" fill="#FFFFFF">
                <tspan x="72" y="272">我在这个平台开展线上MDT会诊和随访管理</tspan>
            </text>
            <path d="M8.30153007,193.993491 L28.9556204,171.054799 C28.9874951,171.533773 29.0036869,172.017037 29.0036869,172.504083 C29.0036869,173.495189 28.9366375,174.470635 28.8068272,175.426131 L12.629948,193.392376 C11.2355562,193.733679 9.78779831,193.939003 8.30153007,193.993491 Z M6.90113555,193.999999 C5.72455351,193.967849 4.57157044,193.841191 3.44950425,193.627343 L28.0851534,166.266682 C28.4169681,167.363243 28.6635636,168.496819 28.8172349,169.659704 L6.90113404,194 Z M14.5277535,192.833437 C21.4552275,190.43891 26.7774843,184.6033 28.4507493,177.370384 L14.5277535,192.833437 Z M2.28521968,193.371624 C1.2803383,193.121337 0.303413204,192.800366 -0.639970147,192.414296 L26.4488763,162.329084 C26.9327666,163.228361 27.3545116,164.166036 27.7083635,165.136362 L2.28521968,193.371624 Z M-1.63919915,191.975264 C-2.51469618,191.563635 -3.35791558,191.094697 -4.16402297,190.573284 L24.2494006,159.016981 C24.8528906,159.765514 25.40723,160.555335 25.9075156,161.381538 L-1.63919915,191.975264 Z M-7.20460173,188.195321 L21.5680582,156.240045 C22.2788055,156.855383 22.948804,157.516532 23.5734628,158.218898 L-5.0280957,189.984147 C-5.79261031,189.435258 -6.51963871,188.837457 -7.20460221,188.195321 Z M-7.94417244,187.467909 C-8.60292678,186.78816 -9.21720327,186.065054 -9.78230875,185.303286 L18.4236295,153.977418 C19.2413217,154.460601 20.0242477,154.996376 20.7677523,155.580086 L-7.94417149,187.467908 Z M-10.3943705,184.434262 C-10.9117773,183.65975 -11.3802358,182.849759 -11.7953232,182.008711 L14.936046,152.320518 C15.81778,152.645493 16.6723546,153.026596 17.4954362,153.459493 L-10.3943705,184.434262 Z M-12.2676638,180.98451 C-12.6886488,180.004518 -13.0388892,178.98695 -13.3119576,177.938236 L10.7267551,151.240541 C11.8017985,151.402332 12.8507757,151.643707 13.8674954,151.958476 L-12.2676638,180.98451 Z M-14,172.947516 L5.69437215,151.0747 C6.28956332,151.02523 6.89163712,151 7.49960366,151 C8.1634288,151 8.82022864,151.030079 9.46871459,151.088948 L-13.594663,176.703424 C-13.8357969,175.485311 -13.9740527,174.230196 -13.9999985,172.947513 Z M-13.9751463,171.371125 C-13.8809239,169.555907 -13.5616004,167.800245 -13.0445574,166.131521 L-0.985859251,152.73898 C0.627404549,152.045464 2.34255131,151.543685 4.13089631,151.262328 L-13.9751463,171.371125 Z M-11.9967606,163.419037 C-10.1803513,159.527701 -7.23322157,156.270163 -3.57795505,154.069006 L-11.996762,163.419038 Z" id="Combined-Shape" fill="#5580D3"></path>
            <circle id="Oval-4" stroke="#5580D3" stroke-dasharray="4" cx="362.5" cy="83.5" r="36.5"></circle>
            <circle id="Oval-2-Copy-5" fill-opacity="0.1" fill="#94D6C8" cx="23.5" cy="89.5" r="10.5"></circle>
            <polygon id="Triangle-3" stroke="#537ED1" transform="translate(311.000000, 192.000000) rotate(-23.000000) translate(-311.000000, -192.000000) " points="311 179 325 205 297 205"></polygon>
            <polygon id="Path-2" fill-opacity="0.1" fill="#F9AD71" points="93 196 93 212.382579 104.906926 196"></polygon>
            <polygon id="Triangle-4" fill-opacity="0.1" fill="#FBAB73" points="259 173 266 185 252 185"></polygon>
            <path d="M355.5,74 L365,86 L346,86 L355.5,74 Z M354.5,78 C354.776142,78 355,77.7761424 355,77.5 C355,77.2238576 354.776142,77 354.5,77 C354.223858,77 354,77.2238576 354,77.5 C354,77.7761424 354.223858,78 354.5,78 Z M354.5,83 C354.776142,83 355,82.7761424 355,82.5 C355,82.2238576 354.776142,82 354.5,82 C354.223858,82 354,82.2238576 354,82.5 C354,82.7761424 354.223858,83 354.5,83 Z M351.5,84 C351.776142,84 352,83.7761424 352,83.5 C352,83.2238576 351.776142,83 351.5,83 C351.223858,83 351,83.2238576 351,83.5 C351,83.7761424 351.223858,84 351.5,84 Z M354.5,86 C354.776142,86 355,85.7761424 355,85.5 C355,85.2238576 354.776142,85 354.5,85 C354.223858,85 354,85.2238576 354,85.5 C354,85.7761424 354.223858,86 354.5,86 Z M357.5,82 C357.776142,82 358,81.7761424 358,81.5 C358,81.2238576 357.776142,81 357.5,81 C357.223858,81 357,81.2238576 357,81.5 C357,81.7761424 357.223858,82 357.5,82 Z M353.5,80 C353.776142,80 354,79.7761424 354,79.5 C354,79.2238576 353.776142,79 353.5,79 C353.223858,79 353,79.2238576 353,79.5 C353,79.7761424 353.223858,80 353.5,80 Z M357.5,78 C357.776142,78 358,77.7761424 358,77.5 C358,77.2238576 357.776142,77 357.5,77 C357.223858,77 357,77.2238576 357,77.5 C357,77.7761424 357.223858,78 357.5,78 Z M347.5,86 C347.776142,86 348,85.7761424 348,85.5 C348,85.2238576 347.776142,85 347.5,85 C347.223858,85 347,85.2238576 347,85.5 C347,85.7761424 347.223858,86 347.5,86 Z M361.5,86 C361.776142,86 362,85.7761424 362,85.5 C362,85.2238576 361.776142,85 361.5,85 C361.223858,85 361,85.2238576 361,85.5 C361,85.7761424 361.223858,86 361.5,86 Z M357.5,86 C357.776142,86 358,85.7761424 358,85.5 C358,85.2238576 357.776142,85 357.5,85 C357.223858,85 357,85.2238576 357,85.5 C357,85.7761424 357.223858,86 357.5,86 Z M358.5,82 C358.776142,82 359,81.7761424 359,81.5 C359,81.2238576 358.776142,81 358.5,81 C358.223858,81 358,81.2238576 358,81.5 C358,81.7761424 358.223858,82 358.5,82 Z M350.5,86 C350.776142,86 351,85.7761424 351,85.5 C351,85.2238576 350.776142,85 350.5,85 C350.223858,85 350,85.2238576 350,85.5 C350,85.7761424 350.223858,86 350.5,86 Z" id="Combined-Shape" fill-opacity="0.1" fill="#EA44B3"></path>
        </g>
    </g>
</svg>